<svg xmlns="http://www.w3.org/2000/svg" width="200" height="200" fill="none" stroke="#fd4e00" stroke-linejoin="round" xmlns:v="https://vecta.io/nano"><path d="M114 102h75V89h-75zm12.489 12l.011 37.5c0 6.899 2.803 13.147 7.328 17.673A24.92 24.92 0 0 0 176.5 151.5c0-6.899-2.803-13.147-7.328-17.673A24.92 24.92 0 0 0 151.5 126.5h-.01c-6.904 0-12.5-5.597-12.5-12.5h12.51c20.697 0 37.5 16.803 37.5 37.5S172.197 189 151.5 189 114 172.197 114 151.5V114h12.489zM114 63.511l37.5-.011a24.92 24.92 0 0 0 17.673-7.327A24.92 24.92 0 0 0 176.5 38.5a24.92 24.92 0 0 0-7.328-17.673 24.92 24.92 0 0 0-35.344 0A24.92 24.92 0 0 0 126.5 38.5v.011c0 6.903-5.596 12.5-12.5 12.5V38.5C114 17.802 130.803 1 151.5 1S189 17.802 189 38.5 172.197 76 151.5 76H114V63.511zM1 102h75V89H1zm88-26h13V1H89zm0 113h13v-75H89zM63.511 76L63.5 38.5c0-6.899-2.802-13.147-7.328-17.673S45.399 13.5 38.5 13.5s-13.147 2.803-17.672 7.327S13.5 31.601 13.5 38.5s2.803 13.147 7.328 17.673S31.601 63.5 38.5 63.5h.011c6.904 0 12.5 5.597 12.5 12.5H38.5C17.803 76 1 59.197 1 38.5S17.803 1 38.5 1 76 17.802 76 38.5V76H63.511zM76 126.489l-37.5.011c-6.899 0-13.147 2.803-17.672 7.327a24.92 24.92 0 0 0 0 35.345c4.525 4.524 10.774 7.327 17.672 7.327s13.148-2.803 17.672-7.327A24.92 24.92 0 0 0 63.5 151.5v-.011c0-6.903 5.596-12.5 12.5-12.5V151.5c0 20.697-16.803 37.5-37.5 37.5S1 172.197 1 151.5 17.803 114 38.5 114H76v12.489z"/></svg>