<?xml version="1.0" encoding="UTF-8"?>
<svg width="1660px" height="587px" viewBox="0 0 1660 587" version="1.1" xmlns="http://www.w3.org/2000/svg" xmlns:xlink="http://www.w3.org/1999/xlink">
    <title>Lockup-portrait-blog-foreground Copy 4</title>
    <defs>
        <path d="M369.26708,440.3087 L369.20506,220.15435 C369.20506,179.65135 352.648673,142.96385 325.918053,116.4021 C299.187433,89.84035 262.27372,73.375 221.523627,73.375 C180.77058,73.375 143.856867,89.84035 117.126247,116.4021 C90.3956267,142.96385 73.83924,179.65135 73.83924,220.15435 C73.83924,260.65735 90.3956267,297.34485 117.126247,323.9066 C143.856867,350.46835 180.77058,366.90435 221.523627,366.90435 L221.585647,366.90435 C262.368227,366.90435 295.42784,399.77635 295.42784,440.3087 L221.523627,440.3087 C99.2615333,440.3087 4.19693909e-13,341.66335 4.19693909e-13,220.15435 C4.19693909e-13,98.64535 99.2615333,0 221.523627,0 C343.78572,0 443.0443,98.64535 443.0443,220.15435 L443.0443,440.3087 L369.26708,440.3087 Z" id="path-1"></path>
    </defs>
    <g id="Lockup-portrait-blog-foreground-Copy-4" stroke="none" stroke-width="1" fill="none" fill-rule="evenodd">
        <g id="Logogram">
            <polygon id="Fill-9" fill="#FD4E00" points="-5.87571473e-13 586.992369 443 586.992369 443 513.617369 -5.87571473e-13 513.617369"></polygon>
            <mask id="mask-2" fill="white">
                <use xlink:href="#path-1"></use>
            </mask>
            <use id="Mask" fill="#FFFFFF" xlink:href="#path-1"></use>
        </g>
        <g id="Blog" transform="translate(609.029779, 279.400910)" fill="#FD4E00" fill-rule="nonzero">
            <path d="M0,9.53799 L0,232.09109 L109.686885,232.09109 C156.423036,232.09109 187.58047,206.338517 187.58047,167.550691 C187.58047,145.613314 173.909351,127.491133 152.60784,117.317277 C169.458289,106.825488 179.950078,89.975039 179.950078,70.581126 C179.950078,34.336764 149.42851,9.53799 104.599957,9.53799 L0,9.53799 Z M101.73856,47.68995 C121.450406,47.68995 134.167726,57.863806 134.167726,74.078389 C134.167726,90.292972 121.450406,100.466828 101.73856,100.466828 L46.100285,100.466828 L46.100285,47.68995 L101.73856,47.68995 Z M106.189622,193.93913 L46.100285,193.93913 L46.100285,136.393257 L106.189622,136.393257 C127.491133,136.393257 141.162252,147.838845 141.162252,165.007227 C141.162252,182.811475 127.491133,193.93913 106.189622,193.93913 Z" id="Shape"></path>
            <polygon id="Path" points="260.387127 0 216.830306 9.53799 216.830306 232.09109 260.387127 232.09109"></polygon>
            <path d="M286.775566,149.42851 C286.775566,197.754326 325.563392,235.27042 375.16094,235.27042 C424.758488,235.27042 463.546314,197.754326 463.546314,149.42851 C463.546314,101.102694 424.758488,63.268667 375.16094,63.268667 C325.563392,63.268667 286.775566,101.102694 286.775566,149.42851 Z M375.16094,197.436393 C349.408367,197.436393 329.378588,176.134882 329.378588,149.42851 C329.378588,122.086272 349.7263,101.102694 375.16094,101.102694 C400.913513,101.102694 420.943292,122.086272 420.943292,149.42851 C420.943292,176.134882 400.913513,197.436393 375.16094,197.436393 Z" id="Shape"></path>
            <path d="M567.828338,233.044889 C584.360854,233.044889 600.257504,227.957961 613.292757,218.102038 L613.292757,231.773157 C613.292757,253.392601 599.939571,264.838189 573.869065,264.838189 C556.38275,264.838189 539.214368,260.387127 521.092187,251.485003 L505.831403,285.503834 C525.225316,295.359757 549.388224,300.446685 574.822864,300.446685 C627.917675,300.446685 656.849578,275.965844 656.849578,232.09109 L656.849578,66.447997 L613.928623,66.447997 L613.928623,77.257719 C600.89337,68.673528 585.632586,63.904533 569.10007,63.904533 C521.41012,63.904533 483.894026,101.102694 483.894026,148.156778 C483.894026,195.528795 521.092187,233.044889 567.828338,233.044889 Z M526.814981,148.156778 C526.814981,121.768339 547.798559,101.102694 574.822864,101.102694 C589.765715,101.102694 603.754767,106.825488 613.292757,116.045545 L613.292757,181.22181 C603.436834,190.7598 590.083648,196.164661 574.504931,196.164661 C547.480626,196.164661 526.814981,175.181083 526.814981,148.156778 Z" id="Shape"></path>
        </g>
        <g id="1A23-Studio" transform="translate(594.042715, 63.366385)" fill="#FFFFFF" fill-rule="nonzero">
            <polygon id="Path" points="45.3844367 4.43758936 32.6767944 4.43758936 0 18.1537747 0 35.9041321 25.4152845 25.2135759 25.4152845 145.633615 45.3844367 145.633615"></polygon>
            <path d="M58.4954962,145.633615 L80.4817344,145.633615 L97.0218402,104.28335 L160.156634,104.28335 L176.495032,145.633615 L199.489813,145.633615 L141.801151,4.43758936 L116.990992,4.43758936 L58.4954962,145.633615 Z M104.081641,86.7347012 L128.690092,24.8101587 L153.298542,86.7347012 L104.081641,86.7347012 Z" id="Shape"></path>
            <path d="M207.15474,145.633615 L304.983415,145.633615 L304.983415,128.488383 L234.788819,128.488383 L274.525415,91.7774164 C296.309944,71.4048471 302.76462,60.3108736 302.76462,43.9724764 C302.76462,19.7674435 282.795468,2.6222119 254.152845,2.6222119 C236.200779,2.6222119 219.458965,9.48030455 203.725694,23.5999071 L215.223084,37.3160924 C229.342687,24.8101587 240.033243,19.9691521 253.749428,19.9691521 C270.692951,19.9691521 283.198885,30.4579997 283.198885,45.1827281 C283.198885,56.4784101 277.954461,64.9501716 261.616064,80.4817344 L207.15474,131.110595 L207.15474,145.633615 Z" id="Path"></path>
            <path d="M422.579533,106.703853 C422.579533,91.1722906 411.485559,78.8680655 394.340328,73.8253503 C408.661639,67.1689663 417.335109,55.2681585 417.335109,40.9468473 C417.335109,18.3554833 396.96254,2.21879468 368.723335,2.21879468 C349.1576,2.21879468 331.205534,9.88372177 317.28764,23.8016157 L330.802116,36.7109666 C343.30805,24.4067415 353.595189,19.7674435 368.319917,19.7674435 C384.860023,19.7674435 397.365957,29.4494567 397.365957,42.3588076 C397.365957,56.4784101 385.061732,66.9672577 368.521626,66.9672577 L357.83107,66.9672577 L357.83107,83.3056549 L370.135295,83.3056549 C389.499321,83.3056549 402.206963,92.3825422 402.206963,105.69531 C402.206963,120.21833 388.692487,130.30376 368.925043,130.30376 C352.586646,130.30376 341.089255,125.664462 329.188447,114.167072 L315.673971,126.874714 C329.188447,140.389191 348.149057,147.650701 369.126752,147.650701 C400.189877,147.650701 422.579533,130.505469 422.579533,106.703853 Z" id="Path"></path>
            <path d="M475.628896,122.235416 C491.765585,138.573813 513.550115,147.650701 536.141479,147.650701 C569.826816,147.650701 592.41818,130.30376 592.41818,104.28335 C592.41818,82.2971119 578.903704,69.9928868 549.05083,65.1518802 L526.257757,61.5211253 C508.103982,58.4954962 501.044181,53.0493638 501.044181,41.5519731 C501.044181,29.0460395 513.348406,20.574278 531.703889,20.574278 C547.437161,20.574278 562.565306,26.222119 577.89516,37.9212182 L589.59426,21.7845296 C573.65928,9.48030455 552.883293,2.6222119 532.712432,2.6222119 C501.24589,2.6222119 480.671612,18.5571919 480.671612,43.165642 C480.671612,63.5382114 493.379254,75.6407278 519.197956,79.8766086 L542.797863,83.7090721 C563.372141,87.1381184 571.440485,93.3910853 571.440485,105.897019 C571.440485,119.814913 557.522591,129.496926 537.150022,129.496926 C519.601373,129.496926 503.868102,122.235416 488.538247,107.308979 L475.628896,122.235416 Z" id="Path"></path>
            <path d="M618.842008,120.21833 C618.842008,137.968688 629.532564,147.448992 649.501716,147.448992 C655.552974,147.448992 663.217901,146.23874 668.664034,144.423363 L668.664034,127.47984 C663.621319,129.295217 659.587147,129.900343 653.939306,129.900343 C643.047041,129.900343 638.81116,126.06788 638.81116,115.579032 L638.81116,59.9074564 L669.067451,59.9074564 L669.067451,42.9639334 L638.81116,42.9639334 L638.81116,11.9008078 L618.842008,16.7418144 L618.842008,42.9639334 L597.057478,42.9639334 L597.057478,59.9074564 L618.842008,59.9074564 L618.842008,120.21833 Z" id="Path"></path>
            <path d="M703.761332,42.9639334 L683.590471,42.9639334 L683.590471,107.308979 C683.590471,131.110595 699.928868,147.650701 723.528775,147.650701 C736.034709,147.650701 746.321848,143.41482 754.390192,135.346476 L754.390192,145.633615 L774.561053,145.633615 L774.561053,42.9639334 L754.390192,42.9639334 L754.390192,116.587575 C748.742351,125.261045 740.068881,130.102052 729.176616,130.102052 C713.645053,130.102052 703.761332,120.016621 703.761332,103.879933 L703.761332,42.9639334 Z" id="Path"></path>
            <path d="M877.029025,145.633615 L896.998178,145.633615 L896.998178,0 L876.827317,4.43758937 L876.827317,51.4356949 C867.952138,44.9810195 857.261582,41.3502645 845.9659,41.3502645 C816.516443,41.3502645 793.723371,64.5467544 793.723371,94.1979197 C793.723371,124.050794 816.516443,147.247283 845.562483,147.247283 C857.46329,147.247283 868.355555,143.213111 877.029025,135.951601 L877.029025,145.633615 Z M813.490814,93.9962111 C813.490814,73.8253503 828.61896,58.6972048 848.386403,58.6972048 C859.682085,58.6972048 870.170933,63.1347941 876.827317,70.7997212 L876.827317,117.39441 C869.969224,125.261045 859.883794,129.698635 848.386403,129.698635 C828.61896,129.698635 813.490814,114.167072 813.490814,93.9962111 Z" id="Shape"></path>
            <path d="M930.885224,26.4238276 C937.743316,26.4238276 943.391157,20.7759866 943.391157,13.9178939 C943.391157,7.05980126 937.743316,1.41196025 930.885224,1.41196025 C924.027131,1.41196025 918.580999,7.05980126 918.580999,13.9178939 C918.580999,20.7759866 924.027131,26.4238276 930.885224,26.4238276 Z M940.970654,42.9639334 L920.799793,42.9639334 L920.799793,145.633615 L940.970654,145.633615 L940.970654,42.9639334 Z" id="Shape"></path>
            <path d="M960.132972,94.1979197 C960.132972,124.252502 983.732879,147.650701 1013.58575,147.650701 C1043.43863,147.650701 1066.83683,124.252502 1066.83683,94.1979197 C1066.83683,64.3450458 1043.43863,40.9468473 1013.58575,40.9468473 C983.732879,40.9468473 960.132972,64.3450458 960.132972,94.1979197 Z M1013.58575,129.900343 C994.625144,129.900343 979.900415,114.167072 979.900415,94.1979197 C979.900415,74.2287676 994.826852,58.6972048 1013.58575,58.6972048 C1032.14294,58.6972048 1047.06938,74.2287676 1047.06938,94.1979197 C1047.06938,114.167072 1032.14294,129.900343 1013.58575,129.900343 Z" id="Shape"></path>
        </g>
    </g>
</svg>