<?xml version="1.0" encoding="UTF-8"?>
<svg width="200px" height="200px" viewBox="0 0 200 200" version="1.1" xmlns="http://www.w3.org/2000/svg" xmlns:xlink="http://www.w3.org/1999/xlink">
    <title>PatternAccent</title>
    <g id="PatternAccent" stroke="none" stroke-width="1" fill="none" fill-rule="evenodd">
        <g id="Group" transform="translate(0.000000, 1.000000)">
            <polygon id="Stroke-30" stroke="#38D1C4" stroke-linejoin="round" points="114 101 189 101 189 88 114 88"></polygon>
            <path d="M126.488827,113 L126.499833,150.4995 C126.499833,157.398271 129.302365,163.646687 133.827839,168.172161 C138.352313,172.696634 144.601729,175.499166 151.4995,175.499166 C158.398271,175.499166 164.647687,172.696634 169.172161,168.172161 C173.697635,163.646687 176.500167,157.398271 176.500167,150.4995 C176.500167,143.600728 173.697635,137.352313 169.172161,132.826839 C164.647687,128.302365 158.398271,125.499833 151.4995,125.499833 L151.489494,125.499833 C144.58572,125.499833 138.989661,119.902774 138.989661,113 L151.4995,113 C172.196814,113 189,129.803186 189,150.4995 C189,171.196814 172.196814,188 151.4995,188 C130.803186,188 114,171.196814 114,150.4995 L114,113 L126.488827,113 Z" id="Stroke-134" stroke="#38D1C4" stroke-linejoin="round"></path>
            <path d="M114,62.5110062 L151.4995,62.5 C158.398271,62.5 164.647687,59.6974306 169.172161,55.1728968 C173.697635,50.6473625 176.500167,44.3988634 176.500167,37.5 C176.500167,30.6011366 173.697635,24.3526375 169.172161,19.8271032 C164.647687,15.3025694 158.398271,12.5 151.4995,12.5 C144.601729,12.5 138.352313,15.3025694 133.827839,19.8271032 C129.302365,24.3526375 126.499833,30.6011366 126.499833,37.5 L126.499833,37.5110062 C126.499833,44.4138718 120.903774,50.0110062 114,50.0110062 L114,37.5 C114,16.8024093 130.803186,0 151.4995,0 C172.196814,0 189,16.8024093 189,37.5 C189,58.1965901 172.196814,75 151.4995,75 L114,75 L114,62.5110062 Z" id="Stroke-162" stroke="#38D1C4" stroke-linejoin="round"></path>
            <polygon id="Stroke-218" stroke="#38D1C4" stroke-linejoin="round" points="1 101 76 101 76 88 1 88"></polygon>
            <polygon id="Stroke-226" stroke="#38D1C4" stroke-linejoin="round" points="89 75 102 75 102 0 89 0"></polygon>
            <polygon id="Stroke-234" stroke="#38D1C4" stroke-linejoin="round" points="89 188 102 188 102 113 89 113"></polygon>
            <path d="M63.5106558,75 L63.49995,37.5 C63.49995,30.6011366 60.6975142,24.3526375 56.1724345,19.8271032 C51.6474548,15.3025694 45.3986304,12.5 38.49995,12.5 C31.6013696,12.5 25.3525452,15.3025694 20.8275655,19.8271032 C16.3024858,24.3526375 13.49995,30.6011366 13.49995,37.5 C13.49995,44.3988634 16.3024858,50.6473625 20.8275655,55.1728968 C25.3525452,59.6974306 31.6013696,62.5 38.49995,62.5 L38.5106558,62.5 C45.414239,62.5 51.0107059,68.0971344 51.0107059,75 L38.49995,75 C17.8032082,75 1,58.1965901 1,37.5 C1,16.8024093 17.8032082,0 38.49995,0 C59.1967918,0 76,16.8024093 76,37.5 L76,75 L63.5106558,75 Z" id="Stroke-242" stroke="#38D1C4" stroke-linejoin="round"></path>
            <path d="M76,125.488827 L38.49995,125.499833 C31.6013696,125.499833 25.3525452,128.302365 20.8275655,132.826839 C16.3024858,137.352313 13.49995,143.600728 13.49995,150.4995 C13.49995,157.398271 16.3024858,163.646687 20.8275655,168.172161 C25.3525452,172.696634 31.6013696,175.499166 38.49995,175.499166 C45.3986304,175.499166 51.6474548,172.696634 56.1724345,168.172161 C60.6975142,163.646687 63.49995,157.398271 63.49995,150.4995 L63.49995,150.488494 C63.49995,143.58572 69.0964168,137.98866 76,137.98866 L76,150.4995 C76,171.196814 59.1967918,188 38.49995,188 C17.8032082,188 1,171.196814 1,150.4995 C1,129.803186 17.8032082,113 38.49995,113 L76,113 L76,125.488827 Z" id="Stroke-254" stroke="#38D1C4" stroke-linejoin="round"></path>
            <rect id="Rectangle" x="0" y="0" width="200" height="199"></rect>
        </g>
    </g>
</svg>