<svg xmlns="http://www.w3.org/2000/svg" xmlns:xlink="http://www.w3.org/1999/xlink" viewBox="0 0 468.7 215.63" xmlns:v="https://vecta.io/nano"><defs><linearGradient id="A" x1="293.503" y1="-4.436" x2="261.055" y2="209.721" gradientUnits="userSpaceOnUse"><stop offset="0" stop-color="#00e5ea"/><stop offset="1" stop-color="#00b5cc"/></linearGradient><linearGradient id="B" x1="391.31" y1="6.58" x2="390.91" y2="123.59" xlink:href="#A"/><linearGradient id="C" x1="320.76" y1="14.17" x2="320.76" y2="47.97" gradientUnits="userSpaceOnUse"><stop offset="0" stop-color="#0069a5"/><stop offset="1" stop-color="#003d6b"/></linearGradient></defs><path d="M107 117.14v-4c11.93 0 22.15-8.62 23.76-20l12.91-91.63h4.06l-13 92.14c-1.92 13.4-13.84 23.49-27.73 23.49zM97.43 98.3a16 16 0 0 1-16.26-18.72l8.68-61.42A21.78 21.78 0 0 1 110.77 0a16.34 16.34 0 0 1 12.57 5.5A16.36 16.36 0 0 1 127 18.72l-8.69 61.42c-1.39 10.01-10.77 18.16-20.88 18.16zM110.77 4a17.63 17.63 0 0 0-17 14.72l-8.64 61.42a12 12 0 0 0 12.3 14.16 17.65 17.65 0 0 0 16.95-14.72l8.69-61.42a12.41 12.41 0 0 0-2.75-10A12.4 12.4 0 0 0 110.77 4zm76.17 1.42l.56-3.91h-20.46-3.31-.74l-13.5 95.44h1.2 2.85H174l.57-4h-20.46l5.85-41.36h20.46l.56-4h-20.45l5.96-42.17h20.45zm79.79-3.91h-31.01l-.55 3.91h14.2l-12.95 91.53h4.06l12.93-91.53h12.77l.55-3.91zm-54.12 0a15.86 15.86 0 0 0-15.24 13.24l-9.86 69.48a11.69 11.69 0 0 0 2.76 9.34 12.57 12.57 0 0 0 9.18 4.43h.2c6.38 0 11.65-5.57 15.15-9.28L211.9 86c-3.06 3.23-7.67 8.11-12.38 8a8.54 8.54 0 0 1-6.21-3 7.73 7.73 0 0 1-1.84-6.18l9.86-69.48a11.83 11.83 0 0 1 11.28-9.9h13.91l.55-3.91zM37.08 5.58a12 12 0 0 0-9.26-4.06H13.5L0 97h4.06l6.41-45.37h10.84a15.87 15.87 0 0 0 15.24-13.29l3.25-23a12 12 0 0 0-2.72-9.76zm-1.24 9.17l-3.26 23a11.74 11.74 0 0 1-11.27 9.8H11l6-42.13h10.85a7.94 7.94 0 0 1 8 9.33zm39.25-9.17a12 12 0 0 0-9.26-4.06h-14.3L38 97h4l6.5-45.42h10L65 96.2h4l-6.6-45a16 16 0 0 0 12.16-12.86l3.25-23a12 12 0 0 0-2.72-9.76zm-1.24 9.17l-3.25 23a11.76 11.76 0 0 1-11.28 9.8H49.07L55 5.42h10.86a7.94 7.94 0 0 1 8 9.33zm149.9 200.72h-4.06l13.5-95.43h4.05l-13.49 95.43zm-157.92.16h0a14.49 14.49 0 0 1-11-4.65 11.3 11.3 0 0 1-2.68-9.15l1.31-8.59 4.4-2.34-1.76 11.52a7.24 7.24 0 0 0 1.75 5.93 10.47 10.47 0 0 0 8 3.28h0c6.42 0 12.26-4.39 13-9.8l5.42-38.33-28.77 15.27 6.37-46c1-7.3 8.65-13.24 17-13.24h0a14.52 14.52 0 0 1 11 4.65 11.36 11.36 0 0 1 2.68 9.14l-1.2 8.68-4.35 2.34 1.64-11.6a7.29 7.29 0 0 0-1.74-6 10.5 10.5 0 0 0-8-3.28h0c-6.42 0-12.26 4.39-13 9.79l-5.29 38.27 28.8-15.28-6.52 46.1c-1.11 7.35-8.73 13.29-17.06 13.29zm108.32-95.59h-4.51l-26.9 51.72 7.31-51.72H146l-13.5 95.43h4.05l4.5-31.8 10.61-20.4 12.61 52.2h4.11l-13.91-57.6 19.68-37.83zM205 215.47h4l-2.29-94.87h0v-.56h-4l-29.31 95.43h4.18l9.82-32h16.83zm-16.37-36L203 132.68l1.13 46.81zm-56.05-55.53l.56-3.91h-20.46-3.32-.74l-13.49 95.44h1.2 2.85 20.46l.56-4H99.75l5.85-41.36h20.45l.57-4h-20.46l5.97-42.17h20.45z" fill="#005286"/><path d="M279.69 1.51h8.87l-32.09 213.93h-8.87L279.69 1.51z" fill="url(#A)"/><path d="M393.81 14.88C396 .34 331.4 1.5 296.53 1.5L283.6 87.67c33.36-1.94 99.5-2 97.21 13.27-1.14 7.58-5.53 7.29-6.1 11.08-1.52 10.14 70.94 5.62 81.15 4.52L434 73.6l34.7-43.29c-17.47 1.81-82.47 4.94-81.11-4.15.73-4.87 5.41-5.56 6.22-11.28z" fill="url(#B)"/><path d="M324.34 13l-5.8 25.24A9.73 9.73 0 0 0 312 36c-4.66 0-8.43 2.82-8.42 6.27s3.8 6.24 8.46 6.22c4 0 7.4-2.12 8.23-4.92h0 0c0-.14.06-.28.09-.42l3.48-15.5q9.18 2.06 9.72 5.26a9 9 0 0 1-1.27 6.22 10.78 10.78 0 0 0 5.7-8.81q.48-5.88-13.65-17.32z" fill="url(#C)"/></svg>